<mxfile host="65bd71144e">
    <diagram id="8BhhwG6aeqCvXPYgFpcq" name="Page-1">
        <mxGraphModel dx="248" dy="789" grid="1" gridSize="10" guides="1" tooltips="1" connect="1" arrows="1" fold="1" page="1" pageScale="1" pageWidth="827" pageHeight="1169" math="0" shadow="0">
            <root>
                <mxCell id="0"/>
                <mxCell id="1" parent="0"/>
                <mxCell id="2" value="BLAX" style="text;html=1;align=center;verticalAlign=middle;resizable=0;points=[];autosize=1;fontSize=60;fontFamily=Helvetica;fontStyle=1;fillColor=default;strokeColor=default;strokeWidth=5;labelBorderColor=none;" parent="1" vertex="1">
                    <mxGeometry x="20" y="115" width="190" height="90" as="geometry"/>
                </mxCell>
            </root>
        </mxGraphModel>
    </diagram>
</mxfile>